<mxfile host="app.diagrams.net" modified="2024-02-03T07:25:36.833Z" agent="Mozilla/5.0 (Windows NT 10.0; Win64; x64) AppleWebKit/537.36 (KHTML, like Gecko) Chrome/121.0.0.0 Safari/537.36" version="23.1.0" etag="elil6a-D_g9XwvRcN0p1" type="github">
  <diagram name="Page-1" id="ZrENTzr3K45VspEdxDzP">
    <mxGraphModel>
      <root>
        <mxCell id="0" />
        <mxCell id="1" parent="0" />
      </root>
    </mxGraphModel>
  </diagram>
</mxfile>
